A timeless evocation of childhood innocence corrupted, René Clément's Forbidden Games tells the story of a young girl orphaned by war and the farm boy she joins in a fantastical world of macabre play. At once mythical and heartbreakingly real, this unique film features astonishing performances by its child stars and was honored with a special foreign language film Academy Award in 1952.


   General
      Complete name : Jeus Interdits.avi
      Format : AVI
      Format/Info : Audio Video Interleave
      File size : 1.16 GiB
      Duration : 1h 26mn
      Overall bit rate : 1 930 Kbps
      Writing application : FairUse Wizard - http://fairusewizard.com    
   Video #0
      ID : 0
      Format : MPEG-4 Visual
      Format profile : AdvancedSimple@L5
      Format settings, BVOP : Yes
      Format settings, QPel : No
      Format settings, GMC : No warppoints
      Format settings, Matrix : Default (MPEG)
      Muxing mode : Packed bitstream
      Codec ID : XVID
      Codec ID/Hint : XviD
      Duration : 1h 26mn
      Bit rate : 1 728 Kbps
      Width : 592 pixels
      Height : 432 pixels
      Display aspect ratio : 1.370
      Frame rate : 23.976 fps
      Resolution : 24 bits
      Colorimetry : 4:2:0
      Scan type : Progressive
      Bits/(Pixel*Frame) : 0.282
      Stream size : 1.04 GiB (90%)
      Writing library : XviD 1.2.1 (UTC 2008-12-04)
   Audio #1
      ID : 1
      Format : MPEG Audio
      Format version : Version 1
      Format profile : Layer 3
      Codec ID : 55
      Codec ID/Hint : MP3
      Duration : 1h 26mn
      Bit rate mode : Constant
      Bit rate : 192 Kbps
      Channel(s) : 2 channels
      Sampling rate : 48.0 KHz
      Resolution : 16 bits
      Stream size : 118 MiB (10%)
      Alignment : Aligned on interleaves
      Interleave, duration : 42 ms (1.00 video frame)
      Interleave, preload duration : 504 ms
      Writing library : LAME3.97 
      Encoding settings : -m j -V 4 -q 2 -lowpass 18.6 -b 192
 
http://www.imdb.com/title/tt0043686/

French audio: English, Spanish and Portuguese subtitles

My rip of the Criterion DVD

Rene Clement - Jeux Interdits (1952)